<?xml version="1.0" encoding="utf-8"?>
<!-- Generator: Adobe Illustrator 14.0.0, SVG Export Plug-In . SVG Version: 6.00 Build 43363)  -->
<!DOCTYPE svg PUBLIC "-//W3C//DTD SVG 1.1//EN" "http://www.w3.org/Graphics/SVG/1.1/DTD/svg11.dtd">
<svg version="1.1" id="レイヤー_1" xmlns="http://www.w3.org/2000/svg" xmlns:xlink="http://www.w3.org/1999/xlink" x="0px"
	 y="0px" width="595.28px" height="841.89px" viewBox="0 0 595.28 841.89" enable-background="new 0 0 595.28 841.89"
	 xml:space="preserve">
<title>Layer 1</title>
<title>Layer 1</title>
<g>
	<g>
		<title>Layer 1</title>
		<path id="path10" fill="#FFFFFF" d="M241.097-60.959v0.078h-0.01h-0.021v-0.078C112.448-61.338-4.219-9.483-88.857,74.654
			c-84.646,84.137-137.201,200.5-137.586,329.127h0.075v0.01v0.021h-0.075c-0.382,128.615,51.478,245.285,135.61,329.925
			c84.137,84.643,200.5,137.197,329.127,137.586v-0.08h0.011l0.021,0.004v0.076c128.611,0.379,245.279-51.477,329.92-135.611
			c84.644-84.137,137.199-200.5,137.584-329.128h-0.078v-0.01v-0.021h0.078c0.379-128.615-51.475-245.285-135.608-329.928
			C486.083-8.018,369.72-60.575,241.097-60.959L241.097-60.959z"/>
		<path id="path12" d="M241.208-100.672h0.01l-0.002,0.08c139.713,0.418,265.998,57.402,357.225,149.168
			c91.217,91.77,147.438,218.393,147.025,358.092h0.076v0.021v0.01h-0.076c-0.422,139.716-57.4,266.005-149.172,357.226
			c-91.764,91.221-218.385,147.441-358.088,147.031v0.076h-0.021h-0.007v-0.076c-139.715-0.422-266.004-57.402-357.225-149.174
			c-91.22-91.77-147.441-218.389-147.029-358.091h-0.078v-0.021v-0.012h0.078c0.42-139.711,57.4-266.002,149.173-357.223
			c91.768-91.223,218.387-147.441,358.09-147.027v-0.08H241.208L241.208-100.672z M241.097-60.961v0.08h-0.008h-0.022l0.004-0.08
			C112.451-61.342-4.217-9.483-88.857,74.65c-84.644,84.137-137.201,200.504-137.586,329.127h0.079v0.01v0.021h-0.079
			c-0.382,128.62,51.478,245.288,135.61,329.93c84.137,84.643,200.504,137.199,329.127,137.588v-0.08h0.011h0.021v0.08
			c128.615,0.379,245.281-51.48,329.92-135.613c84.646-84.137,137.199-200.5,137.586-329.128l-0.08-0.002v-0.008v-0.021h0.08
			c0.381-128.615-51.477-245.285-135.61-329.93C486.087-8.018,369.722-60.575,241.097-60.961L241.097-60.961z"/>
		<path id="path14" fill="#FFFFFF" d="M240.626,96.587v0.037h-0.01h-0.021v-0.037C155.44,96.335,78.2,130.662,22.177,186.355
			c-56.028,55.699-90.815,132.734-91.073,217.893h0.041v0.012v0.021h-0.041c-0.246,85.155,34.075,162.389,89.767,218.418
			c55.69,56.031,132.727,90.82,217.895,91.078v-0.041h0.013h0.021v0.041c85.154,0.248,162.391-34.08,218.412-89.771
			c56.033-55.695,90.82-132.729,91.074-217.893h-0.039v-0.011v-0.021h0.039c0.25-85.15-34.072-162.389-89.763-218.416
			C402.823,131.634,325.788,96.841,240.626,96.587L240.626,96.587z"/>
		<path id="path16" d="M240.675,76.73h0.013v0.041c90.704,0.271,172.702,37.277,231.938,96.873
			c59.229,59.588,95.738,141.801,95.473,232.494h0.039v0.023v0.008h-0.039c-0.273,90.702-37.271,172.704-96.867,231.942
			c-59.584,59.232-141.797,95.744-232.495,95.479v0.039h-0.021h-0.01v-0.039c-90.709-0.271-172.707-37.279-231.943-96.871
			c-59.229-59.59-95.738-141.805-95.473-232.499h-0.039v-0.021v-0.012h0.039c0.271-90.702,37.271-172.699,96.865-231.938
			c59.588-59.236,141.799-95.748,232.502-95.479v-0.043h0.019L240.675,76.73L240.675,76.73z M240.626,96.587v0.037h-0.01h-0.021
			v-0.037C155.44,96.335,78.2,130.662,22.177,186.355c-56.028,55.699-90.815,132.734-91.069,217.893h0.037v0.012v0.021h-0.037
			c-0.25,85.155,34.071,162.389,89.763,218.418c55.69,56.031,132.727,90.82,217.895,91.078v-0.041h0.013h0.021v0.041
			c85.154,0.248,162.391-34.08,218.416-89.771c56.029-55.695,90.816-132.729,91.074-217.893h-0.043v-0.011v-0.021h0.043
			c0.246-85.15-34.076-162.389-89.767-218.416C402.827,131.634,325.788,96.841,240.626,96.587L240.626,96.587z"/>
	</g>
	<g>
		<g>
			<rect x="59.869" y="980.873" fill="#3F3B3C" width="34.197" height="158.104"/>
			<polygon fill="#3F3B3C" points="169.462,980.873 169.462,1062.216 125.46,1062.208 125.406,1093.792 169.462,1093.792 
				169.462,1138.974 203.66,1138.974 203.66,980.873 			"/>
		</g>
		<path fill="#3F3B3C" d="M-48.126,1015.226h77.057v-34.363h-75.198c-45.334,0-68.593,13.508-68.593,57.344
			s23.259,57.344,68.593,57.344h25.548c12.097,0.115,10.124,1.721,10.124,4.5v0.018v0.02c0,2.883,0.761,4.535-11.515,4.535
			l-92.748-0.25v34.359l90.895,0.252c38.227,0,52.896-9.613,52.896-38.904v-0.004v-0.014v-0.004
			c0-27.99-11.896-37.988-47.844-38.818v-0.057h-3.642c-0.474-0.004-0.938-0.012-1.411-0.012h-21.479v0.012h-2.682
			c-29.196,0-34.412-9.287-34.412-22.49v-0.971C-82.536,1024.515-77.32,1015.226-48.126,1015.226z"/>
		<path fill="#3F3B3C" d="M637.22,1138.98V980.863h-88.723c-47.212,0-85.467,35.402-85.467,79.068
			c0,43.646,38.265,79.049,85.467,79.049h27.192v-34.369h-27.062c-27.459,0-49.812-19.318-49.812-44.684
			c0-25.385,21.813-44.699,49.25-44.699h55.043v123.752H637.22L637.22,1138.98z"/>
		<rect x="234.595" y="980.873" fill="#3F3B3C" width="34.199" height="158.104"/>
		<path fill="#3F3B3C" d="M1091.791,1138.986c45.341,0,82.306-25.25,82.306-72.523v-85.594h-33.38v87.494
			c0,30.439-26.247,42.078-48.926,42.078c-22.646,0-47.975-11.639-47.975-42.078l0.009-87.494h-33.857v85.594
			C1009.968,1113.736,1046.479,1138.986,1091.791,1138.986z"/>
		<path fill="#3F3B3C" d="M-228.098,1138.978c45.341,0,82.306-25.25,82.306-72.523v-85.592h-33.38v87.492
			c0,30.439-26.245,42.076-48.926,42.076c-22.646,0-47.977-11.637-47.977-42.076l0.01-87.492h-33.854v85.592
			C-309.922,1113.728-273.41,1138.978-228.098,1138.978z"/>
		<path fill="#3F3B3C" d="M901.977,1015.226h77.059v-34.363h-75.2c-45.336,0-68.593,13.508-68.593,57.344
			s23.257,57.344,68.593,57.344h25.547c12.094,0.115,10.126,1.721,10.126,4.5v0.018v0.02c0,2.883,0.757,4.535-11.518,4.535
			l-92.746-0.266v34.363l90.89,0.264c38.228,0,52.9-9.613,52.9-38.904v-0.004v-0.014v-0.004c0-27.99-11.896-37.988-47.847-38.818
			v-0.057h-3.638c-0.474-0.004-0.942-0.012-1.418-0.012h-21.476v0.012h-2.682c-29.195,0-34.413-9.287-34.413-22.49v-0.971
			C867.566,1024.515,872.781,1015.226,901.977,1015.226z"/>
		<polygon fill="#3F3B3C" points="812.003,980.873 668.212,980.873 668.156,1012.458 722.983,1012.457 722.983,1138.974 
			757.179,1138.974 757.179,1012.453 812.003,1012.449 		"/>
		<g>
			<g>
				<rect x="-484.763" y="980.865" fill="#3F3B3C" width="34.195" height="158.104"/>
			</g>
			<path fill="#3F3B3C" d="M-352.576,1077.964c7.737-8.385,11.66-20.779,11.66-38.742l-0.057-58.355h-34.195v58.844
				c0,13.203-3.285,22.49-32.482,22.49h-1.855h-9.662l-0.056,31.586h0.111h9.552h1.97c29.194,0,32.479,9.291,32.479,22.49v22.688
				h34.198l0.056-22.203C-340.86,1098.761-344.8,1086.347-352.576,1077.964z"/>
		</g>
		<g>
			<g>
				<rect x="299.733" y="980.873" fill="#3F3B3C" width="34.196" height="158.104"/>
			</g>
			<path fill="#3F3B3C" d="M431.922,1077.968c7.736-8.381,11.659-20.779,11.659-38.742l-0.058-58.354h-34.196v58.84
				c0,13.203-3.285,22.494-32.481,22.494h-1.854h-9.662l-0.059,31.586h0.113h9.553h1.969c29.196,0,32.481,9.287,32.481,22.49v22.688
				h34.196l0.056-22.201C443.636,1098.765,439.698,1086.355,431.922,1077.968z"/>
		</g>
	</g>
	<g>
		<path fill="none" stroke="#FFFFFF" stroke-width="16" d="M-305.95,270.464V539.06c0,15.955,12.937,28.887,28.892,28.887h32.985
			v81.791c0,20.773,16.586,37.613,37.048,37.613c20.457,0,37.049-16.84,37.049-37.613v-81.791h57.66v81.791
			c0,20.773,16.573,37.613,37.026,37.613c20.454,0,37.048-16.84,37.048-37.613v-81.791h33.006c15.938,0,28.877-12.941,28.877-28.887
			V270.464H-305.95L-305.95,270.464z"/>
		<path fill="none" stroke="#FFFFFF" stroke-width="16" d="M-63.763,131.283l30.447-44.203c1.8-2.631,1.357-6.07-1.004-7.705
			c-2.367-1.625-5.738-0.82-7.556,1.811l-31.628,45.906c-20.827-8.217-43.98-12.787-68.38-12.787
			c-24.395,0-47.562,4.57-68.389,12.787L-241.9,81.185c-1.814-2.631-5.188-3.436-7.555-1.811c-2.365,1.625-2.812,5.074-1.005,7.705
			l30.444,44.203c-48.385,22.514-82.346,65.305-86.666,115.244H22.915C18.588,196.587-15.37,153.798-63.763,131.283z
			 M-211.406,200.939c-10.072,0-18.243-8.164-18.243-18.242c0-10.059,8.164-18.23,18.243-18.23c10.075,0,18.223,8.172,18.223,18.23
			C-193.185,192.769-201.339,200.939-211.406,200.939z M-70.084,200.939c-10.076,0-18.229-8.164-18.229-18.242
			c0-10.059,8.152-18.23,18.229-18.23c10.081,0,18.233,8.172,18.233,18.23C-51.848,192.769-60.006,200.939-70.084,200.939z"/>
		<path fill="none" stroke="#FFFFFF" stroke-width="16" d="M461.768,270.464V539.06c0,15.955,12.938,28.887,28.894,28.887h32.983
			v81.791c0,20.773,16.588,37.613,37.049,37.613c20.457,0,37.048-16.84,37.048-37.613v-81.791h57.66v81.791
			c0,20.773,16.572,37.613,37.025,37.613c20.454,0,37.047-16.84,37.047-37.613v-81.791h33.007c15.937,0,28.875-12.941,28.875-28.887
			V270.464H461.768L461.768,270.464z"/>
		<path fill="none" stroke="#FFFFFF" stroke-width="16" d="M703.952,131.283l30.45-44.203c1.799-2.631,1.354-6.07-1.006-7.705
			c-2.366-1.625-5.738-0.82-7.556,1.811l-31.629,45.906c-20.826-8.217-43.979-12.787-68.379-12.787
			c-24.396,0-47.562,4.57-68.389,12.787l-31.629-45.906c-1.816-2.631-5.188-3.436-7.557-1.811c-2.362,1.625-2.812,5.074-1.005,7.705
			l30.446,44.203c-48.384,22.514-82.346,65.305-86.667,115.244h329.596C786.305,196.587,752.347,153.798,703.952,131.283z
			 M556.311,200.939c-10.073,0-18.241-8.164-18.241-18.242c0-10.059,8.161-18.23,18.241-18.23c10.075,0,18.222,8.172,18.222,18.23
			C574.531,192.769,566.378,200.939,556.311,200.939z M697.634,200.939c-10.077,0-18.229-8.164-18.229-18.242
			c0-10.059,8.15-18.23,18.229-18.23c10.082,0,18.233,8.172,18.233,18.23C715.867,192.769,707.712,200.939,697.634,200.939z"/>
		<path fill="none" stroke="#FFFFFF" stroke-width="16" d="M77.907,483.458h329.592V214.863c0-15.945-12.938-28.889-28.877-28.889
			h-33.006v-81.789c0-20.775-16.594-37.617-37.048-37.617c-20.452,0-37.026,16.838-37.026,37.617v81.789h-57.661v-81.789
			c0-20.775-16.591-37.617-37.048-37.617c-20.461,0-37.046,16.838-37.046,37.617v81.789H106.8c-15.955,0-28.892,12.93-28.892,28.889
			L77.907,483.458L77.907,483.458z"/>
		<path fill="none" stroke="#FFFFFF" stroke-width="16" d="M406.777,507.39H77.176c4.323,49.941,38.286,92.734,86.667,115.248
			l-30.446,44.197c-1.808,2.631-1.354,6.078,1.006,7.707c2.366,1.623,5.737,0.82,7.557-1.812l31.629-45.904
			c20.825,8.223,43.994,12.791,68.388,12.791c24.398,0,47.554-4.568,68.381-12.791l31.629,45.904
			c1.813,2.635,5.188,3.438,7.554,1.812c2.362-1.637,2.805-5.076,1.006-7.707l-30.448-44.197
			C368.49,600.123,402.448,557.333,406.777,507.39z M190.672,571.222c0,10.062-8.145,18.232-18.22,18.232
			c-10.08,0-18.243-8.172-18.243-18.232c0-10.074,8.17-18.238,18.243-18.238C182.52,552.982,190.672,561.152,190.672,571.222z
			 M332.01,571.222c0,10.062-8.153,18.232-18.232,18.232c-10.075,0-18.229-8.172-18.229-18.232c0-10.074,8.154-18.238,18.229-18.238
			C323.854,552.982,332.01,561.152,332.01,571.222z"/>
	</g>
	<path fill="#FFFFFF" d="M-211.338,210.404c-13.228,0-23.926-10.717-23.926-23.943c0-13.203,10.699-23.93,23.926-23.93
		c13.231,0,23.932,10.727,23.932,23.93C-187.406,199.679-198.11,210.404-211.338,210.404z"/>
	<path fill="#FFFFFF" d="M-224.265,283.736c-13.227,0-23.926-10.715-23.926-23.943c0-13.201,10.7-23.928,23.926-23.928
		c13.232,0,23.933,10.727,23.933,23.928C-200.335,273.011-211.039,283.736-224.265,283.736z"/>
	<path fill="#FFFFFF" d="M-51.742,283.736c-13.226,0-23.925-10.715-23.925-23.943c0-13.201,10.7-23.928,23.925-23.928
		c13.233,0,23.933,10.727,23.933,23.928C-27.809,273.011-38.513,283.736-51.742,283.736z"/>
	<path fill="#FFFFFF" d="M700.912,206.404c-13.228,0-23.925-10.717-23.925-23.943c0-13.203,10.698-23.93,23.925-23.93
		c13.231,0,23.932,10.727,23.932,23.93C724.844,195.679,714.14,206.404,700.912,206.404z"/>
	<path fill="#FFFFFF" d="M529.365,283.736c-13.228,0-23.926-10.715-23.926-23.943c0-13.201,10.699-23.928,23.926-23.928
		c13.231,0,23.932,10.727,23.932,23.928C553.294,273.011,542.59,283.736,529.365,283.736z"/>
	<path fill="#FFFFFF" d="M704.354,283.736c-13.226,0-23.925-10.715-23.925-23.943c0-13.201,10.7-23.928,23.925-23.928
		c13.233,0,23.934,10.727,23.934,23.928C728.285,273.011,717.581,283.736,704.354,283.736z"/>
	<g>
		<g>
			<polygon fill="#7F4F21" points="-258.534,355.447 -481.911,386.416 -481.911,410.439 1126.145,410.439 1126.145,355.447 			"/>
		</g>
		<g>
			<g>
				<g>
					<path fill="#F6C697" d="M-305.95,270.464V539.06c0,15.955,12.937,28.887,28.892,28.887h32.985v81.791
						c0,20.773,16.586,37.613,37.048,37.613c20.457,0,37.049-16.84,37.049-37.613v-81.791h57.66v81.791
						c0,20.773,16.573,37.613,37.026,37.613c20.454,0,37.048-16.84,37.048-37.613v-81.791h33.006
						c15.938,0,28.877-12.941,28.877-28.887V270.464H-305.95L-305.95,270.464z"/>
					<path fill="#B28247" d="M-74.039,694.566l-0.409-14.453c5.04-0.145,9.986-1.596,14.309-4.197l7.461,12.387
						C-59.129,692.185-66.513,694.351-74.039,694.566L-74.039,694.566z M-205.509,694.556l-0.494-14.449
						c5.037-0.174,9.975-1.654,14.275-4.283l7.54,12.338C-190.614,692.085-197.985,694.298-205.509,694.556L-205.509,694.556z
						 M-227.219,689.656c-6.623-3.443-12.332-8.57-16.51-14.828l12.023-8.027c2.83,4.236,6.687,7.705,11.155,10.027
						L-227.219,689.656L-227.219,689.656z M-95.72,689.525c-6.602-3.484-12.274-8.648-16.41-14.938l12.077-7.947
						c2.801,4.256,6.635,7.746,11.086,10.102L-95.72,689.525L-95.72,689.525z M-37.126,672.484l-12.496-7.273
						c2.545-4.371,3.974-9.375,4.135-14.473l14.45,0.451C-31.271,658.681-33.377,666.042-37.126,672.484L-37.126,672.484z
						 M-168.728,672.255l-12.538-7.201c2.519-4.387,3.918-9.396,4.051-14.5l14.451,0.373
						C-162.957,658.419-165.019,665.794-168.728,672.255L-168.728,672.255z M-251.111,653.931c-0.127-1.393-0.188-2.803-0.188-4.193
						v-15.25h14.458v15.25c0,0.957,0.044,1.928,0.132,2.885L-251.111,653.931L-251.111,653.931z M-119.378,653.658
						c-0.111-1.303-0.168-2.619-0.168-3.92v-15.49h14.459v15.49c0,0.893,0.038,1.795,0.113,2.686L-119.378,653.658L-119.378,653.658
						z M-31.011,632.167H-45.47v-18.797h14.459V632.167L-31.011,632.167z M-162.748,631.947h-14.459v-18.795h14.459V631.947
						L-162.748,631.947z M-236.844,615.691h-14.458v-18.797h14.458V615.691L-236.844,615.691z M-105.087,615.451h-14.459v-18.795
						h14.459V615.451L-105.087,615.451z M-31.011,594.578H-45.47v-18.797h14.459V594.578L-31.011,594.578z M-162.748,594.357
						h-14.459v-18.799h14.459V594.357L-162.748,594.357z M-236.844,578.097h-14.458v-2.922h-1.415v-14.459h15.873V578.097
						L-236.844,578.097z M-105.087,577.859h-14.459v-2.686h-1.654v-14.457h16.113V577.859L-105.087,577.859z M-8.482,575.175H-27.28
						v-14.459h18.798V575.175L-8.482,575.175z M-139.997,575.175h-18.796v-14.459h18.796V575.175L-139.997,575.175z
						 M-271.51,575.175h-5.548c-5.611,0-10.992-1.256-15.992-3.727l6.409-12.961c2.986,1.479,6.214,2.229,9.583,2.229h5.548V575.175
						L-271.51,575.175z M13.282,570.062l-7.432-12.4c4.053-2.428,7.25-6.168,9.006-10.531l13.413,5.396
						C25.346,559.796,20.024,566.027,13.282,570.062L13.282,570.062z M-309.394,555.166c-2.511-5.031-3.784-10.451-3.784-16.105
						v-5.445h14.46v5.445c0,3.396,0.761,6.643,2.262,9.648L-309.394,555.166L-309.394,555.166z M30.87,531.298H16.411v-18.797H30.87
						V531.298L30.87,531.298z M-298.719,514.816h-14.459v-18.797h14.459V514.816L-298.719,514.816z M30.87,493.708H16.411v-18.797
						H30.87V493.708L30.87,493.708z M-298.719,477.224h-14.459v-18.797h14.459V477.224L-298.719,477.224z M30.87,456.115H16.411
						v-18.797H30.87V456.115L30.87,456.115z M-298.719,439.63h-14.459v-18.797h14.459V439.63L-298.719,439.63z M30.87,418.521
						H16.411v-18.796H30.87V418.521L30.87,418.521z M-298.719,402.037h-14.459V383.24h14.459V402.037L-298.719,402.037z
						 M30.87,380.929H16.411v-18.797H30.87V380.929L30.87,380.929z M-298.719,364.445h-14.459v-18.797h14.459V364.445
						L-298.719,364.445z M30.87,343.335H16.411v-18.797H30.87V343.335L30.87,343.335z M-298.719,326.853h-14.459v-18.797h14.459
						V326.853L-298.719,326.853z M30.87,305.744H16.411v-18.797H30.87V305.744L30.87,305.744z M-298.719,289.259h-14.459v-18.795
						h14.459V289.259L-298.719,289.259z M21.327,277.693H2.531v-14.459h18.797V277.693L21.327,277.693z M-16.263,277.693H-35.06
						v-14.459h18.797V277.693L-16.263,277.693z M-53.857,277.693h-18.797v-14.459h18.797V277.693L-53.857,277.693z M-91.45,277.693
						h-18.797v-14.459h18.797V277.693L-91.45,277.693z M-129.043,277.693h-18.796v-14.459h18.796V277.693L-129.043,277.693z
						 M-166.635,277.693h-18.797v-14.459h18.797V277.693L-166.635,277.693z M-204.226,277.693h-18.797v-14.459h18.797V277.693
						L-204.226,277.693z M-241.82,277.693h-18.797v-14.459h18.797V277.693L-241.82,277.693z M-279.413,277.693h-18.797v-14.459
						h18.797V277.693L-279.413,277.693z"/>
				</g>
				<g>
					<path fill="#F6C697" d="M-63.763,131.283l30.447-44.203c1.8-2.631,1.357-6.07-1.004-7.705c-2.367-1.625-5.738-0.82-7.556,1.811
						l-31.628,45.906c-20.827-8.217-43.98-12.787-68.38-12.787c-24.395,0-47.562,4.57-68.389,12.787L-241.9,81.185
						c-1.814-2.631-5.188-3.436-7.555-1.811c-2.365,1.625-2.812,5.074-1.005,7.705l30.444,44.203
						c-48.385,22.514-82.346,65.305-86.666,115.244H22.915C18.588,196.587-15.37,153.798-63.763,131.283z M-211.406,200.939
						c-10.072,0-18.243-8.164-18.243-18.242c0-10.059,8.164-18.23,18.243-18.23c10.075,0,18.223,8.172,18.223,18.23
						C-193.185,192.769-201.339,200.939-211.406,200.939z M-70.084,200.939c-10.076,0-18.229-8.164-18.229-18.242
						c0-10.059,8.152-18.23,18.229-18.23c10.081,0,18.233,8.172,18.233,18.23C-51.848,192.769-60.006,200.939-70.084,200.939z"/>
					<path fill="#B28247" d="M30.799,253.757H13.586v-14.459h1.18c-0.051-0.332-0.104-0.662-0.156-0.992l14.27-2.332
						c0.537,3.279,0.955,6.621,1.241,9.93L30.799,253.757L30.799,253.757z M-5.211,253.757h-18.796v-14.459h18.796V253.757
						L-5.211,253.757z M-42.802,253.757h-18.797v-14.459h18.797V253.757L-42.802,253.757z M-80.394,253.757h-18.798v-14.459h18.798
						V253.757L-80.394,253.757z M-117.988,253.757h-18.797v-14.459h18.797V253.757L-117.988,253.757z M-155.581,253.757h-18.796
						v-14.459h18.796V253.757L-155.581,253.757z M-193.174,253.757h-18.797v-14.459h18.797V253.757L-193.174,253.757z
						 M-230.765,253.757h-18.797v-14.459h18.797V253.757L-230.765,253.757z M-268.358,253.757h-18.797v-14.459h18.797V253.757
						L-268.358,253.757z M-305.951,253.757h-8.609l0.68-7.854c0.548-6.326,1.562-12.67,3.017-18.854l14.074,3.311
						c-1.295,5.506-2.198,11.156-2.687,16.789l-6.475-0.559V253.757L-305.951,253.757z M10.451,221.105
						c-1.793-5.568-4.03-11.1-6.649-16.438l12.979-6.369c2.928,5.963,5.429,12.145,7.435,18.377L10.451,221.105L10.451,221.105z
						 M-291.473,213.47l-13.435-5.344c2.415-6.07,5.312-12.07,8.612-17.83l12.545,7.188
						C-286.712,202.652-289.308,208.033-291.473,213.47L-291.473,213.47z M-70.045,208.169c-0.021,0-0.038,0-0.057,0
						c-8.873,0-17.238-4.736-21.816-12.363l12.396-7.441c2.011,3.35,5.536,5.348,9.438,5.348c0.37,0.016,0.751-0.02,1.11-0.055
						l1.447,14.387C-68.36,208.126-69.207,208.169-70.045,208.169L-70.045,208.169z M-211.406,208.169
						c-8.883,0-17.249-4.73-21.835-12.348l12.386-7.459c2.019,3.35,5.55,5.35,9.449,5.35c0.374,0,0.744-0.02,1.108-0.057
						l1.447,14.385C-209.694,208.125-210.552,208.169-211.406,208.169L-211.406,208.169z M-47.039,193.544l-13.081-6.158
						c0.689-1.467,1.041-3.045,1.041-4.688c0-2.195-0.644-4.312-1.858-6.123l12.002-8.061c2.822,4.201,4.315,9.105,4.315,14.184
						C-44.62,186.486-45.432,190.138-47.039,193.544L-47.039,193.544z M-188.371,193.535l-13.081-6.158
						c0.688-1.463,1.038-3.037,1.038-4.68c-0.002-2.197-0.646-4.316-1.862-6.131l12.002-8.061c2.823,4.201,4.317,9.109,4.318,14.189
						C-185.956,186.486-186.767,190.132-188.371,193.535L-188.371,193.535z M-5.126,189.292c-3.287-4.861-6.969-9.604-10.94-14.086
						l10.821-9.588c4.39,4.953,8.46,10.193,12.1,15.578L-5.126,189.292L-5.126,189.292z M-273.868,182.673l-11.466-8.811
						c3.958-5.148,8.325-10.137,12.979-14.82l10.258,10.191C-266.323,173.486-270.283,178.007-273.868,182.673L-273.868,182.673z
						 M-221.134,177.533l-12.754-6.811c4.191-7.852,12.31-13.006,21.182-13.451l0.729,14.438
						C-215.808,171.902-219.317,174.136-221.134,177.533L-221.134,177.533z M-79.796,177.527l-12.753-6.814
						c4.194-7.854,12.314-13.004,21.189-13.443l0.714,14.439C-74.471,171.898-77.978,174.128-79.796,177.527L-79.796,177.527z
						 M-28.741,162.578c-4.431-3.904-9.186-7.621-14.131-11.045l8.229-11.891c5.407,3.744,10.61,7.812,15.464,12.088
						L-28.741,162.578L-28.741,162.578z M-248.722,157.316l-8.961-11.348c5.074-4.008,10.481-7.793,16.073-11.248l7.604,12.299
						C-239.131,150.185-244.081,153.65-248.722,157.316L-248.722,157.316z M-58.209,142.15c-2.803-1.508-5.698-2.959-8.605-4.312
						l-4.709-2.191l-4.635-1.83c-1.455-0.574-2.92-1.129-4.396-1.666l2.879-7.936l-1.779-1.227l7.88-11.437l8.562,5.898l3.962-5.75
						l11.905,8.203l-5.926,8.604c0.574,0.301,1.146,0.604,1.715,0.908L-58.209,142.15L-58.209,142.15z M-218.208,138.423
						l-2.995-6.32l-4.765,3.281l-9.854-14.309l11.908-8.201l2.343,3.402l8.562-5.902l8.688,12.613l-2.998,2.066l2.817,7.564
						c-1.047,0.391-2.086,0.787-3.122,1.197l-4.6,1.812L-218.208,138.423L-218.208,138.423z M-187.29,127.224l-3.605-14.002
						c6.254-1.609,12.688-2.922,19.127-3.902l2.176,14.295C-175.552,124.521-181.508,125.734-187.29,127.224L-187.29,127.224z
						 M-97.807,126.89c-5.8-1.447-11.762-2.617-17.716-3.475l2.062-14.312c6.438,0.928,12.883,2.191,19.152,3.756L-97.807,126.89
						L-97.807,126.89z M-151.613,121.785l-0.751-14.438c6.482-0.338,13.058-0.357,19.489-0.072l-0.645,14.445
						C-139.494,121.451-145.594,121.472-151.613,121.785L-151.613,121.785z M-246.484,105.597l-9.929-14.416
						c-0.519-0.75-0.962-1.559-1.319-2.4l13.306-5.66c-0.021-0.047-0.046-0.094-0.076-0.139l1.607,2.336l8.561-5.896l10.664,15.479
						l-11.905,8.203l-2.344-3.402L-246.484,105.597L-246.484,105.597z M-36.486,104.425l-8.56-5.896l-3.96,5.748l-11.906-8.203
						l10.663-15.479l8.56,5.896l2.422-3.514c-0.062,0.09-0.125,0.209-0.153,0.387l14.25,2.443c-0.329,1.924-1.062,3.725-2.177,5.354
						L-36.486,104.425L-36.486,104.425z"/>
				</g>
			</g>
			<g>
				<g>
					<path fill="#F6C697" d="M461.768,270.464V539.06c0,15.955,12.938,28.887,28.894,28.887h32.983v81.791
						c0,20.773,16.588,37.613,37.049,37.613c20.457,0,37.048-16.84,37.048-37.613v-81.791h57.66v81.791
						c0,20.773,16.572,37.613,37.025,37.613c20.454,0,37.047-16.84,37.047-37.613v-81.791h33.007
						c15.937,0,28.875-12.941,28.875-28.887V270.464H461.768L461.768,270.464z"/>
					<path fill="#B28247" d="M693.679,694.566l-0.406-14.453c5.036-0.145,9.982-1.596,14.309-4.197l7.457,12.387
						C708.585,692.185,701.199,694.351,693.679,694.566L693.679,694.566z M562.208,694.556l-0.494-14.449
						c5.038-0.174,9.977-1.654,14.277-4.283l7.541,12.338C577.107,692.085,569.734,694.298,562.208,694.556L562.208,694.556z
						 M540.499,689.656c-6.624-3.443-12.332-8.57-16.509-14.828l12.022-8.027c2.829,4.236,6.688,7.705,11.154,10.027
						L540.499,689.656L540.499,689.656z M671.998,689.525c-6.602-3.482-12.277-8.648-16.414-14.938l12.078-7.947
						c2.8,4.256,6.634,7.746,11.085,10.098L671.998,689.525L671.998,689.525z M730.593,672.484l-12.496-7.273
						c2.544-4.371,3.975-9.375,4.136-14.473l14.448,0.451C736.448,658.681,734.34,666.042,730.593,672.484L730.593,672.484z
						 M598.99,672.251l-12.538-7.199c2.516-4.383,3.917-9.395,4.05-14.5l14.453,0.375
						C604.757,658.423,602.698,665.794,598.99,672.251L598.99,672.251z M516.608,653.931c-0.127-1.393-0.19-2.803-0.19-4.193v-15.25
						h14.458v15.25c0,0.957,0.044,1.928,0.132,2.885L516.608,653.931L516.608,653.931z M648.337,653.658
						c-0.11-1.303-0.168-2.619-0.168-3.92V634.25h14.459v15.486c0,0.893,0.038,1.795,0.114,2.688L648.337,653.658L648.337,653.658z
						 M736.704,632.167h-14.459v-18.797h14.459V632.167L736.704,632.167z M604.969,631.947H590.51V613.15h14.459V631.947
						L604.969,631.947z M530.873,615.691h-14.458v-18.797h14.458V615.691L530.873,615.691z M662.628,615.455h-14.459v-18.797h14.459
						V615.455L662.628,615.455z M736.704,594.578h-14.459v-18.797h14.459V594.578L736.704,594.578z M604.969,594.353H590.51v-18.797
						h14.459V594.353L604.969,594.353z M530.873,578.097h-14.458v-2.922H515v-14.459h15.873V578.097L530.873,578.097z
						 M662.628,577.861h-14.459v-2.688h-1.651v-14.457h16.11V577.861L662.628,577.861z M759.236,575.175h-18.798v-14.459h18.798
						V575.175L759.236,575.175z M627.722,575.175h-18.797v-14.459h18.797V575.175L627.722,575.175z M496.204,575.175h-5.545
						c-5.617-0.002-10.997-1.256-15.995-3.729l6.41-12.961c2.985,1.479,6.214,2.229,9.587,2.23h5.543V575.175L496.204,575.175z
						 M780.999,570.062l-7.43-12.404c4.051-2.424,7.247-6.164,9.004-10.529l13.414,5.396
						C793.063,559.794,787.74,566.027,780.999,570.062L780.999,570.062z M458.323,555.166c-2.511-5.031-3.784-10.451-3.784-16.105
						v-5.445h14.459v5.445c0,3.396,0.761,6.643,2.262,9.648L458.323,555.166L458.323,555.166z M798.585,531.294h-14.459V512.5
						h14.459V531.294L798.585,531.294z M468.996,514.816h-14.459v-18.797h14.459V514.816L468.996,514.816z M798.585,493.705h-14.459
						v-18.797h14.459V493.705L798.585,493.705z M468.996,477.224h-14.459v-18.797h14.459V477.224L468.996,477.224z M798.585,456.113
						h-14.459v-18.797h14.459V456.113L798.585,456.113z M468.996,439.63h-14.459v-18.797h14.459V439.63L468.996,439.63z
						 M798.585,418.519h-14.459v-18.797h14.459V418.519L798.585,418.519z M468.996,402.037h-14.459V383.24h14.459V402.037
						L468.996,402.037z M798.585,380.925h-14.459V362.13h14.459V380.925L798.585,380.925z M468.996,364.445h-14.459v-18.797h14.459
						V364.445L468.996,364.445z M798.585,343.332h-14.459v-18.795h14.459V343.332L798.585,343.332z M468.996,326.853h-14.459
						v-18.797h14.459V326.853L468.996,326.853z M798.585,305.74h-14.459v-18.797h14.459V305.74L798.585,305.74z M468.996,289.259
						h-14.459v-18.795h14.459V289.259L468.996,289.259z M789.04,277.693h-18.797v-14.459h18.797V277.693L789.04,277.693z
						 M751.448,277.693h-18.796v-14.459h18.796V277.693L751.448,277.693z M713.857,277.693h-18.798v-14.459h18.798V277.693
						L713.857,277.693z M676.263,277.693h-18.797v-14.459h18.797V277.693L676.263,277.693z M638.67,277.693h-18.797v-14.459h18.797
						V277.693L638.67,277.693z M601.077,277.693h-18.797v-14.459h18.797V277.693L601.077,277.693z M563.487,277.693h-18.796v-14.459
						h18.796V277.693L563.487,277.693z M525.893,277.693h-18.797v-14.459h18.797V277.693L525.893,277.693z M488.3,277.693h-18.797
						v-14.459H488.3V277.693L488.3,277.693z"/>
				</g>
				<g>
					<path fill="#F6C697" d="M703.952,131.283l30.45-44.203c1.799-2.631,1.354-6.07-1.006-7.705
						c-2.366-1.625-5.738-0.82-7.556,1.811l-31.629,45.906c-20.826-8.217-43.979-12.787-68.379-12.787
						c-24.396,0-47.562,4.57-68.389,12.787l-31.629-45.906c-1.816-2.631-5.188-3.436-7.557-1.811
						c-2.362,1.625-2.812,5.074-1.005,7.705l30.446,44.203c-48.384,22.514-82.346,65.305-86.667,115.244h329.596
						C786.305,196.587,752.347,153.798,703.952,131.283z M556.311,200.939c-10.073,0-18.241-8.164-18.241-18.242
						c0-10.059,8.161-18.23,18.241-18.23c10.075,0,18.222,8.172,18.222,18.23C574.531,192.769,566.378,200.939,556.311,200.939z
						 M697.634,200.939c-10.077,0-18.229-8.164-18.229-18.242c0-10.059,8.15-18.23,18.229-18.23c10.082,0,18.233,8.172,18.233,18.23
						C715.867,192.769,707.712,200.939,697.634,200.939z"/>
					<path fill="#B28247" d="M798.516,253.757h-17.214v-14.459h1.183c-0.053-0.332-0.104-0.662-0.157-0.992l14.27-2.332
						c0.537,3.279,0.955,6.621,1.24,9.93L798.516,253.757L798.516,253.757z M762.506,253.757H743.71v-14.459h18.796V253.757
						L762.506,253.757z M724.913,253.757h-18.796v-14.459h18.796V253.757L724.913,253.757z M687.323,253.757h-18.797v-14.459h18.797
						V253.757L687.323,253.757z M649.729,253.757h-18.796v-14.459h18.796V253.757L649.729,253.757z M612.136,253.757h-18.797
						v-14.459h18.797V253.757L612.136,253.757z M574.543,253.757h-18.796v-14.459h18.796V253.757L574.543,253.757z M536.95,253.757
						h-18.796v-14.459h18.796V253.757L536.95,253.757z M499.361,253.757h-18.798v-14.459h18.798V253.757L499.361,253.757z
						 M461.766,253.757h-8.608l0.679-7.854c0.548-6.326,1.562-12.67,3.017-18.852l14.074,3.309
						c-1.295,5.508-2.198,11.154-2.686,16.791l-6.476-0.561V253.757L461.766,253.757z M778.168,221.105
						c-1.794-5.568-4.03-11.1-6.648-16.438l12.979-6.369c2.928,5.963,5.428,12.145,7.436,18.377L778.168,221.105L778.168,221.105z
						 M476.242,213.472l-13.435-5.344c2.414-6.07,5.312-12.07,8.611-17.83l12.545,7.188
						C481.005,202.654,478.407,208.033,476.242,213.472L476.242,213.472z M697.675,208.169c-0.02,0-0.038,0-0.058,0
						c-8.872,0-17.237-4.736-21.816-12.361l12.396-7.443c2.012,3.348,5.54,5.348,9.438,5.348c0.44,0.008,0.752-0.018,1.11-0.055
						l1.448,14.387C699.359,208.126,698.511,208.169,697.675,208.169L697.675,208.169z M556.311,208.169
						c-8.885,0-17.252-4.73-21.837-12.35l12.391-7.455c2.016,3.35,5.547,5.348,9.446,5.348c0.375,0,0.744-0.02,1.108-0.057
						l1.448,14.385C558.025,208.125,557.163,208.169,556.311,208.169L556.311,208.169z M720.678,193.544l-13.081-6.158
						c0.69-1.467,1.041-3.045,1.041-4.688c0-2.195-0.643-4.312-1.856-6.123l12.002-8.061c2.82,4.201,4.313,9.105,4.313,14.184
						C723.097,186.486,722.283,190.138,720.678,193.544L720.678,193.544z M579.345,193.535l-13.083-6.154
						c0.689-1.465,1.039-3.041,1.039-4.684c0-2.197-0.644-4.314-1.858-6.129l12.002-8.062c2.823,4.203,4.315,9.111,4.315,14.191
						C581.76,186.484,580.948,190.132,579.345,193.535L579.345,193.535z M762.589,189.291c-3.287-4.861-6.968-9.602-10.938-14.086
						l10.819-9.586c4.391,4.951,8.459,10.191,12.1,15.576L762.589,189.291L762.589,189.291z M493.849,182.673l-11.466-8.811
						c3.958-5.148,8.325-10.137,12.979-14.82l10.256,10.191C501.395,173.486,497.434,178.007,493.849,182.673L493.849,182.673z
						 M546.582,177.533l-12.753-6.811c4.189-7.852,12.308-13.006,21.181-13.453l0.729,14.439
						C551.906,171.902,548.4,174.136,546.582,177.533L546.582,177.533z M687.923,177.525l-12.754-6.811
						c4.195-7.855,12.313-13.008,21.191-13.447l0.715,14.441C693.244,171.898,689.74,174.128,687.923,177.525L687.923,177.525z
						 M738.974,162.576c-4.431-3.904-9.185-7.621-14.131-11.045l8.229-11.889c5.406,3.742,10.608,7.811,15.464,12.088
						L738.974,162.576L738.974,162.576z M518.993,157.316l-8.961-11.348c5.075-4.008,10.48-7.793,16.073-11.248l7.604,12.299
						C528.586,150.187,523.636,153.65,518.993,157.316L518.993,157.316z M709.509,142.148c-2.81-1.512-5.704-2.963-8.604-4.311
						l-4.792-2.227l-4.554-1.797c-1.456-0.574-2.926-1.131-4.404-1.668l2.884-7.934l-1.778-1.227l7.88-11.436l8.562,5.898
						l3.962-5.75l11.906,8.203l-5.925,8.6c0.572,0.303,1.146,0.605,1.715,0.91L709.509,142.148L709.509,142.148z M549.5,138.427
						l-2.986-6.324l-4.764,3.281l-9.854-14.307l11.906-8.201l2.344,3.398l8.562-5.9l8.689,12.613l-3,2.068l2.814,7.562
						c-1.042,0.389-2.08,0.787-3.108,1.193l-4.709,1.861L549.5,138.427L549.5,138.427z M580.427,127.224l-3.604-14.002
						c6.254-1.609,12.688-2.922,19.127-3.902l2.175,14.295C592.163,124.521,586.209,125.734,580.427,127.224L580.427,127.224z
						 M669.908,126.888c-5.799-1.447-11.761-2.617-17.716-3.475l2.062-14.312c6.438,0.928,12.883,2.191,19.153,3.756
						L669.908,126.888L669.908,126.888z M616.104,121.785l-0.75-14.438c6.479-0.338,13.052-0.357,19.487-0.072l-0.646,14.445
						C628.221,121.451,622.118,121.472,616.104,121.785L616.104,121.785z M521.238,105.599l-9.933-14.418
						c-0.524-0.768-0.97-1.574-1.322-2.41l13.312-5.637c-0.027-0.066-0.056-0.115-0.076-0.143l1.604,2.324l8.56-5.898l10.664,15.479
						l-11.905,8.205l-2.343-3.398L521.238,105.599L521.238,105.599z M731.236,104.425l-8.562-5.896l-3.96,5.75l-11.906-8.203
						l10.663-15.479l8.562,5.896l2.421-3.514c-0.057,0.08-0.125,0.203-0.157,0.395l14.255,2.422
						c-0.326,1.924-1.057,3.729-2.174,5.361L731.236,104.425L731.236,104.425z"/>
				</g>
			</g>
			<g>
				<g>
					<path fill="#F6C697" d="M77.907,483.458h329.592V214.863c0-15.945-12.938-28.889-28.877-28.889h-33.006v-81.789
						c0-20.775-16.594-37.617-37.048-37.617c-20.452,0-37.026,16.838-37.026,37.617v81.789h-57.661v-81.789
						c0-20.775-16.591-37.617-37.048-37.617c-20.461,0-37.046,16.838-37.046,37.617v81.789H106.8
						c-15.955,0-28.892,12.93-28.892,28.889L77.907,483.458L77.907,483.458z"/>
					<path fill="#B28247" d="M397.447,490.687H378.65v-14.455h18.797V490.687L397.447,490.687z M359.852,490.687h-18.796v-14.455
						h18.796V490.687L359.852,490.687z M322.259,490.687h-18.797v-14.455h18.797V490.687L322.259,490.687z M284.666,490.687H265.87
						v-14.455h18.796V490.687L284.666,490.687z M247.073,490.687h-18.797v-14.455h18.797V490.687L247.073,490.687z M209.483,490.687
						h-18.797v-14.455h18.797V490.687L209.483,490.687z M171.889,490.687h-18.797v-14.455h18.797V490.687L171.889,490.687z
						 M134.296,490.687h-18.797v-14.455h18.797V490.687L134.296,490.687z M96.703,490.687H77.907v-14.455h18.796V490.687
						L96.703,490.687z M85.138,475.72H70.679v-18.797h14.459V475.72L85.138,475.72z M414.729,474.716H400.27v-18.795h14.459V474.716
						L414.729,474.716z M85.138,438.126H70.679V419.33h14.459V438.126L85.138,438.126z M414.729,437.125H400.27v-18.796h14.459
						V437.125L414.729,437.125z M85.138,400.533H70.679v-18.795h14.459V400.533L85.138,400.533z M414.729,399.531H400.27v-18.797
						h14.459V399.531L414.729,399.531z M85.138,362.941H70.679v-18.797h14.459V362.941L85.138,362.941z M414.729,361.939H400.27
						v-18.797h14.459V361.939L414.729,361.939z M85.138,325.349H70.679v-18.797h14.459V325.349L85.138,325.349z M414.729,324.347
						H400.27V305.55h14.459V324.347L414.729,324.347z M85.138,287.757H70.679v-18.799h14.459V287.757L85.138,287.757z
						 M414.729,286.753H400.27v-18.797h14.459V286.753L414.729,286.753z M85.138,250.164H70.679v-18.797h14.459V250.164
						L85.138,250.164z M414.729,249.16H400.27v-18.795h14.459V249.16L414.729,249.16z M85.206,213.138l-14.414-1.127
						c0.621-7.941,3.763-15.283,9.085-21.229l10.772,9.645C87.46,203.988,85.578,208.384,85.206,213.138L85.206,213.138z
						 M400.131,212.392c-0.536-4.732-2.572-9.061-5.89-12.514l10.435-10.014c5.449,5.682,8.938,13.104,9.821,20.896L400.131,212.392
						L400.131,212.392z M102.686,193.595l-2.731-14.199c2.24-0.432,4.544-0.65,6.848-0.65h13.281v14.459h-13.281
						C105.412,193.203,104.029,193.335,102.686,193.595L102.686,193.595z M381.987,193.464c-1.107-0.174-2.237-0.262-3.362-0.262
						h-14.302v-14.457h14.302c1.868,0,3.748,0.146,5.588,0.432L381.987,193.464L381.987,193.464z M278.772,193.203h-8.375v-7.229
						h-6.084v-17.65h14.459V193.203L278.772,193.203z M251.602,193.203h-18.798v-14.457h18.798V193.203L251.602,193.203z
						 M214.008,193.203h-7.355v-25.896h14.459v18.67h-7.166L214.008,193.203L214.008,193.203z M147.018,193.203h-8.14v-7.229h-6.319
						v-17.887h14.459V193.203L147.018,193.203z M352.845,185.884h-14.458v-18.797h14.458V185.884L352.845,185.884z M278.772,149.527
						h-14.459V130.73h14.459V149.527L278.772,149.527z M147.018,149.291h-14.459v-18.795h14.459V149.291L147.018,149.291z
						 M221.112,148.509h-14.459v-18.795h14.459V148.509L221.112,148.509z M352.845,148.291h-14.458v-18.797h14.458V148.291
						L352.845,148.291z M278.772,111.935h-14.459v-7.748c0-4.408,0.632-8.766,1.875-12.953l13.86,4.121
						c-0.848,2.848-1.276,5.82-1.276,8.832V111.935L278.772,111.935z M147.018,111.699h-14.459v-7.514
						c-0.002-4.5,0.655-8.951,1.957-13.221l13.832,4.207c-0.885,2.904-1.332,5.938-1.33,9.012V111.699L147.018,111.699z
						 M221.112,110.916h-14.459v-6.729c0-3.293-0.514-6.529-1.521-9.617l13.744-4.492c1.482,4.541,2.235,9.287,2.235,14.109V110.916
						L221.112,110.916z M352.845,110.697h-14.458v-6.512c0-3.354-0.53-6.646-1.577-9.783l13.717-4.574
						c1.539,4.617,2.318,9.447,2.318,14.357V110.697L352.845,110.697z M287.75,82.443l-10.203-10.244
						c5.353-5.33,11.986-9.217,19.188-11.236l3.904,13.922C295.813,76.236,291.358,78.853,287.75,82.443L287.75,82.443z
						 M156.131,82.316l-10.136-10.311c5.386-5.295,12.045-9.141,19.256-11.115l3.819,13.945
						C164.237,76.16,159.761,78.748,156.131,82.316L156.131,82.316z M197.079,81.876c-3.703-3.49-8.229-5.979-13.091-7.199
						l3.517-14.023c7.255,1.818,13.996,5.521,19.492,10.703L197.079,81.876L197.079,81.876z M328.682,81.755
						c-3.722-3.469-8.263-5.932-13.131-7.121l3.436-14.045c7.267,1.775,14.027,5.438,19.556,10.59L328.682,81.755L328.682,81.755z"
						/>
				</g>
				<g>
					<path fill="#F6C697" d="M406.777,507.39H77.176c4.323,49.941,38.286,92.734,86.667,115.248l-30.446,44.197
						c-1.808,2.631-1.354,6.078,1.006,7.707c2.366,1.623,5.737,0.82,7.557-1.812l31.629-45.904
						c20.825,8.223,43.994,12.791,68.388,12.791c24.398,0,47.554-4.568,68.381-12.791l31.629,45.904
						c1.813,2.635,5.188,3.438,7.554,1.812c2.362-1.637,2.805-5.076,1.006-7.707l-30.448-44.197
						C368.49,600.123,402.448,557.333,406.777,507.39z M190.672,571.222c0,10.062-8.145,18.232-18.22,18.232
						c-10.08,0-18.243-8.172-18.243-18.232c0-10.074,8.17-18.238,18.243-18.238C182.52,552.982,190.672,561.152,190.672,571.222z
						 M332.01,571.222c0,10.062-8.153,18.232-18.232,18.232c-10.075,0-18.229-8.172-18.229-18.232
						c0-10.074,8.154-18.238,18.229-18.238C323.854,552.982,332.01,561.152,332.01,571.222z"/>
					<path fill="#B28247" d="M345.536,682.548c-3.803-0.391-7.271-2.471-9.505-5.711l-7.727-11.213l8.562-5.896l-6.766-9.814
						l11.906-8.203l10.662,15.479l-8.559,5.895l3.821,5.549c-0.065-0.098-0.323-0.402-0.933-0.469L345.536,682.548L345.536,682.548z
						 M135.231,682.458c-1.78-0.279-3.438-0.939-4.922-1.959c-3.29-2.266-5.249-6.064-5.249-10.17c0-2.699,0.822-5.324,2.38-7.588
						l4.57-6.637l11.906,8.201l-4.566,6.629c0.066-0.096,0.169-0.293,0.169-0.605c0-0.633-0.396-1.316-1.015-1.74
						c-0.312-0.213-0.661-0.354-1.021-0.41L135.231,682.458L135.231,682.458z M154.884,666.71l-11.905-8.203l8.258-11.98l-8.562-5.9
						l10.664-15.48l11.905,8.205l-8.257,11.982l8.562,5.898L154.884,666.71L154.884,666.71z M317.643,650.15l-10.662-15.48
						l8.561-5.896l-6.255-9.08l7.76-3.607c2.736-1.273,5.462-2.635,8.104-4.043l6.812,12.754c-0.39,0.209-0.78,0.414-1.174,0.621
						l0.562,0.812l-8.562,5.896l6.765,9.818L317.643,650.15L317.643,650.15z M241.974,646.845l-0.715-0.002l0.091-14.459
						l0.624,0.002c5.824,0,11.688-0.271,17.423-0.812l1.358,14.395C254.57,646.55,248.25,646.845,241.974,646.845L241.974,646.845z
						 M221.815,645.832c-6.476-0.656-12.965-1.645-19.285-2.93l2.884-14.168c5.854,1.189,11.863,2.104,17.861,2.713L221.815,645.832
						L221.815,645.832z M280.065,643.171l-2.785-14.188c5.91-1.16,11.802-2.633,17.513-4.377l4.222,13.83
						C292.83,640.326,286.455,641.917,280.065,643.171L280.065,643.171z M183.615,638.033c-2.443-0.768-4.878-1.584-7.284-2.447
						l-0.119,0.172l-0.654-0.451c-1.557-0.566-3.102-1.152-4.627-1.756l0.445-1.125l-7.07-4.873l6.589-9.561l5.348,2.109
						c3.807,1.504,7.742,2.895,11.696,4.135L183.615,638.033L183.615,638.033z M150.774,624.146
						c-5.759-3.129-11.364-6.596-16.669-10.301l8.282-11.854c4.861,3.398,10.006,6.578,15.29,9.451L150.774,624.146L150.774,624.146
						z M348.708,614.625l-8.187-11.916c4.959-3.406,9.729-7.105,14.177-10.996l9.52,10.881
						C359.349,606.857,354.13,610.904,348.708,614.625L348.708,614.625z M118.696,601.683c-4.931-4.389-9.596-9.082-13.867-13.951
						l10.87-9.535c3.881,4.426,8.123,8.693,12.609,12.688L118.696,601.683L118.696,601.683z M301.785,593.687
						c-7.851-4.193-12.997-12.316-13.438-21.193l14.441-0.713c0.188,3.832,2.416,7.344,5.812,9.156L301.785,593.687L301.785,593.687
						z M160.45,593.685c-7.852-4.195-12.999-12.316-13.439-21.189l14.441-0.717c0.188,3.832,2.419,7.34,5.816,9.156L160.45,593.685
						L160.45,593.685z M185.552,593.058l-7.455-12.391c3.349-2.014,5.347-5.545,5.347-9.445c0-0.375-0.019-0.744-0.056-1.107
						l14.386-1.449c0.084,0.846,0.129,1.705,0.129,2.559C197.903,580.109,193.17,588.474,185.552,593.058L185.552,593.058z
						 M326.885,593.056l-7.452-12.393c3.351-2.014,5.35-5.543,5.35-9.441c0.002-0.387-0.02-0.754-0.054-1.111l14.386-1.445
						c0.086,0.854,0.129,1.721,0.127,2.574C339.24,580.107,334.505,588.474,326.885,593.056L326.885,593.056z M378.207,588.759
						l-10.784-9.629c3.988-4.469,7.69-9.193,11.002-14.047l11.942,8.148C386.703,578.601,382.615,583.828,378.207,588.759
						L378.207,588.759z M92.811,572.085c-3.687-5.514-6.996-11.285-9.837-17.156l13.015-6.301
						c2.553,5.273,5.525,10.463,8.845,15.424L92.811,572.085L92.811,572.085z M166.323,562.074l-8.062-12.002
						c4.203-2.826,9.109-4.318,14.188-4.318c0.003,0,0.008,0,0.01,0c3.785,0,7.432,0.814,10.839,2.422l-6.167,13.076
						c-1.462-0.689-3.035-1.039-4.674-1.039c-0.002,0-0.003,0-0.005,0C170.251,560.21,168.134,560.857,166.323,562.074
						L166.323,562.074z M307.656,562.07l-8.065-12.002c4.202-2.822,9.104-4.314,14.183-4.314c0.003,0,0.007,0,0.01,0
						c3.785,0,7.435,0.814,10.843,2.422l-6.162,13.08c-1.467-0.691-3.043-1.043-4.684-1.043c-0.001,0-0.003,0-0.004,0
						C311.575,560.21,309.462,560.853,307.656,562.07L307.656,562.07z M400.366,556.169l-12.95-6.426
						c2.641-5.32,4.902-10.84,6.727-16.41l13.74,4.496C405.844,544.06,403.319,550.232,400.366,556.169L400.366,556.169z
						 M75.641,536.509c-1.991-6.314-3.521-12.816-4.55-19.326l14.284-2.25c0.913,5.799,2.276,11.596,4.056,17.227L75.641,536.509
						L75.641,536.509z M412.634,518.556l-14.258-2.398c0.086-0.514,0.17-1.023,0.248-1.537h-10.646v-14.457h26.681l-0.683,7.854
						C413.672,511.529,413.22,515.076,412.634,518.556L412.634,518.556z M369.182,514.621h-18.796v-14.459h18.796V514.621
						L369.182,514.621z M331.589,514.621h-18.796v-14.459h18.796V514.621L331.589,514.621z M293.997,514.621H275.2v-14.459h18.797
						V514.621L293.997,514.621z M256.406,514.621h-18.798v-14.459h18.798V514.621L256.406,514.621z M218.813,514.621h-18.798
						v-14.459h18.798V514.621L218.813,514.621z M181.219,514.621h-18.796v-14.459h18.796V514.621L181.219,514.621z M143.626,514.621
						H124.83v-14.459h18.796V514.621L143.626,514.621z M106.034,514.621H87.238v-14.459h18.798L106.034,514.621L106.034,514.621z"/>
				</g>
			</g>
		</g>
	</g>
	<path d="M-366.378,185.908c34.121-16.039,58.189-54.113,58.334-98.611c0.114-44.264-23.47-82.326-57.189-98.705l-0.405,135.334
		l-20.966-0.064l0.438-142.301c-2.41-0.471-4.84-0.832-7.31-1.09l-0.427,143.367l-20.946-0.066l0.427-142.904
		c-3.091,0.453-6.139,1.076-9.121,1.854l-0.433,141.021l-20.966-0.062l0.384-132.359c-30.808,17.523-52.011,53.643-52.138,95.41
		c-0.139,44.506,23.724,82.748,57.75,98.982l-0.531,178.67l72.587-10.062L-366.378,185.908z"/>
	<path d="M-440.728,786.437c-0.039,9.307,16.267,17.004,36.215,17.062c19.966,0.053,36.291-7.521,36.313-16.865l1.094-360.191
		h-72.554L-440.728,786.437z"/>
	<path d="M918.029,16.587c3.648-7.244-69.058,43.328-87.39,108.572c-11.002,80.643,5.881,171.314,13.873,212.844l-0.006,1.443h71.55
		C916.165,231.796,916.6,124.158,918.029,16.587z"/>
	<path d="M843.161,790.261c-0.029,9.33,16.271,17.014,36.229,17.07c19.95,0.061,36.282-7.525,36.323-16.852
		c0.541-121.299,0.33-242.67,0.311-364.041h-71.776L843.161,790.261z"/>
	<path d="M1186.029,91.597c0.178-59.096-41.921-107.145-94.005-107.299c-52.084-0.158-94.467,47.643-94.642,106.736
		c-0.131,44.506,23.718,82.744,57.748,98.98l-0.446,149.432h71.461h1.099l0.444-149.217
		C1161.818,174.201,1185.895,136.105,1186.029,91.597z"/>
	<path d="M1054.424,426.439l-1.089,364.291c-0.027,9.33,16.274,17.01,36.229,17.068c19.949,0.061,36.299-7.521,36.329-16.854
		l1.089-364.51h-0.839h-71.721L1054.424,426.439L1054.424,426.439z"/>
</g>
</svg>
