<?xml version="1.0" encoding="utf-8"?>
<!-- Generator: Adobe Illustrator 14.0.0, SVG Export Plug-In . SVG Version: 6.00 Build 43363)  -->
<!DOCTYPE svg PUBLIC "-//W3C//DTD SVG 1.1//EN" "http://www.w3.org/Graphics/SVG/1.1/DTD/svg11.dtd">
<svg version="1.1" id="レイヤー_1" xmlns="http://www.w3.org/2000/svg" xmlns:xlink="http://www.w3.org/1999/xlink" x="0px"
	 y="0px" width="595.28px" height="841.89px" viewBox="0 0 595.28 841.89" enable-background="new 0 0 595.28 841.89"
	 xml:space="preserve">
<g>
	<g>
		<rect x="149.644" y="646.519" fill="#3F3B3C" width="17.771" height="82.158"/>
		<polygon fill="#3F3B3C" points="206.595,646.519 206.595,688.79 183.729,688.784 183.7,705.198 206.595,705.198 206.595,728.677 
			224.366,728.677 224.366,646.519 		"/>
	</g>
	<path fill="#3F3B3C" d="M93.524,664.371h40.043v-17.857H94.489c-23.559,0-35.645,7.019-35.645,29.798s12.086,29.798,35.645,29.798
		h13.276c6.285,0.061,5.261,0.896,5.261,2.339v0.01v0.01c0,1.498,0.394,2.356-5.983,2.356l-48.198-0.131v17.857l47.233,0.131
		c19.865,0,27.489-4.996,27.489-20.218v-0.002v-0.008v-0.002c0-14.545-6.182-19.739-24.863-20.172v-0.028h-1.891
		c-0.246-0.002-0.489-0.006-0.735-0.006H94.917v0.006h-1.393c-15.172,0-17.883-4.827-17.883-11.688v-0.504
		C75.642,669.198,78.353,664.371,93.524,664.371z"/>
	<path fill="#3F3B3C" d="M449.668,728.682v-82.168h-46.105c-24.535,0-44.414,18.397-44.414,41.089
		c0,22.681,19.885,41.079,44.414,41.079h14.131V710.82h-14.062c-14.27,0-25.887-10.039-25.887-23.218
		c0-13.193,11.336-23.229,25.594-23.229h28.602v64.308H449.668L449.668,728.682z"/>
	<rect x="240.442" y="646.519" fill="#3F3B3C" width="17.771" height="82.158"/>
	<path fill="#3F3B3C" d="M685.89,728.683c23.561,0,42.77-13.12,42.77-37.688v-44.477h-17.346v45.465
		c0,15.819-13.639,21.867-25.424,21.867c-11.768,0-24.93-6.048-24.93-21.867l0.004-45.465H643.37v44.477
		C643.37,715.562,662.343,728.683,685.89,728.683z"/>
	<path fill="#3F3B3C" d="M-0.001,728.679c23.561,0,42.77-13.12,42.77-37.688v-44.477H25.423v45.465
		c0,15.819-13.639,21.867-25.424,21.867c-11.768,0-24.93-6.048-24.93-21.867l0.004-45.465h-17.594v44.477
		C-42.521,715.559-23.548,728.679-0.001,728.679z"/>
	<path fill="#3F3B3C" d="M587.251,664.371h40.043v-17.857h-39.078c-23.559,0-35.645,7.019-35.645,29.798
		s12.086,29.798,35.645,29.798h13.275c6.285,0.061,5.262,0.896,5.262,2.339v0.01v0.01c0,1.498,0.393,2.356-5.984,2.356
		l-48.197-0.138v17.857l47.232,0.138c19.865,0,27.49-4.996,27.49-20.218v-0.002v-0.008v-0.002c0-14.545-6.182-19.739-24.863-20.172
		v-0.028h-1.891c-0.246-0.002-0.49-0.006-0.736-0.006h-11.16v0.006h-1.393c-15.172,0-17.883-4.827-17.883-11.688v-0.504
		C569.368,669.198,572.079,664.371,587.251,664.371z"/>
	<polygon fill="#3F3B3C" points="540.496,646.519 465.773,646.519 465.744,662.933 494.234,662.931 494.234,728.677 
		512.006,728.677 512.006,662.929 540.496,662.927 	"/>
	<g>
		<g>
			<rect x="-133.379" y="646.516" fill="#3F3B3C" width="17.771" height="82.158"/>
		</g>
		<path fill="#3F3B3C" d="M-64.686,696.974c4.021-4.357,6.059-10.799,6.059-20.133l-0.029-30.325h-17.771v30.577
			c0,6.861-1.707,11.688-16.879,11.688h-0.965h-5.021l-0.029,16.414h0.059h4.963h1.023c15.172,0,16.879,4.827,16.879,11.688v11.79
			h17.771l0.029-11.538C-58.598,707.78-60.645,701.33-64.686,696.974z"/>
	</g>
	<g>
		<g>
			<rect x="274.29" y="646.519" fill="#3F3B3C" width="17.771" height="82.158"/>
		</g>
		<path fill="#3F3B3C" d="M342.983,696.977c4.021-4.357,6.059-10.799,6.059-20.133l-0.029-30.325h-17.771v30.577
			c0,6.861-1.707,11.688-16.879,11.688h-0.965h-5.021l-0.029,16.414h0.059h4.963h1.023c15.172,0,16.879,4.827,16.879,11.688v11.79
			h17.771l0.029-11.538C349.071,707.783,347.024,701.333,342.983,696.977z"/>
	</g>
</g>
<g>
	<polygon fill="#7F4F21" points="-70.748,246.898 -225.241,268.317 -225.241,284.931 886.932,284.931 886.932,246.898 	"/>
	<g>
		<path fill="#F6C697" stroke="#B28247" stroke-width="10" stroke-dasharray="13,13,13" d="M-103.542,188.12v185.768
			c0,11.035,8.947,19.979,19.982,19.979h22.814v56.568c0,14.369,11.471,26.016,25.623,26.016c14.148,0,25.623-11.646,25.623-26.016
			v-56.568H30.38v56.568c0,14.369,11.463,26.016,25.609,26.016s25.623-11.646,25.623-26.016v-56.568h22.828
			c11.021,0,19.971-8.951,19.971-19.979V188.12H-103.542L-103.542,188.12z"/>
		<path fill="#F6C697" stroke="#B28247" stroke-width="10" stroke-dasharray="13,13,13" d="M63.96,91.86l21.059-30.572
			c1.244-1.819,0.938-4.199-0.695-5.329c-1.637-1.123-3.969-0.568-5.225,1.251L57.224,88.96
			c-14.404-5.682-30.418-8.844-47.293-8.844c-16.871,0-32.895,3.162-47.299,8.844l-21.875-31.75
			c-1.256-1.819-3.588-2.375-5.225-1.251c-1.635,1.124-1.945,3.509-0.695,5.329l21.057,30.572
			c-33.463,15.57-56.951,45.166-59.941,79.706h227.957C120.917,137.026,97.431,107.431,63.96,91.86z M-38.153,140.036
			c-6.967,0-12.617-5.646-12.617-12.616c0-6.958,5.646-12.61,12.617-12.61c6.969,0,12.602,5.652,12.602,12.61
			C-25.552,134.384-31.19,140.036-38.153,140.036z M59.589,140.036c-6.969,0-12.607-5.646-12.607-12.616
			c0-6.958,5.639-12.61,12.607-12.61c6.973,0,12.611,5.652,12.611,12.61C72.2,134.384,66.56,140.036,59.589,140.036z"/>
	</g>
	<g>
		<path fill="#F6C697" stroke="#B28247" stroke-width="10" stroke-dasharray="13,13,13" d="M427.431,188.12v185.768
			c0,11.035,8.947,19.979,19.982,19.979h22.814v56.568c0,14.369,11.471,26.016,25.623,26.016c14.148,0,25.623-11.646,25.623-26.016
			v-56.568h39.879v56.568c0,14.369,11.463,26.016,25.609,26.016s25.623-11.646,25.623-26.016v-56.568h22.828
			c11.021,0,19.971-8.951,19.971-19.979V188.12H427.431L427.431,188.12z"/>
		<path fill="#F6C697" stroke="#B28247" stroke-width="10" stroke-dasharray="13,13,13" d="M594.933,91.86l21.059-30.572
			c1.244-1.819,0.938-4.199-0.695-5.329c-1.637-1.123-3.969-0.568-5.225,1.251l-21.875,31.75
			c-14.404-5.682-30.418-8.844-47.293-8.844c-16.871,0-32.895,3.162-47.299,8.844l-21.875-31.75
			c-1.256-1.819-3.588-2.375-5.225-1.251c-1.635,1.124-1.945,3.509-0.695,5.329l21.057,30.572
			c-33.463,15.57-56.951,45.166-59.941,79.706h227.957C651.89,137.026,628.403,107.431,594.933,91.86z M492.819,140.036
			c-6.967,0-12.617-5.646-12.617-12.616c0-6.958,5.646-12.61,12.617-12.61c6.969,0,12.602,5.652,12.602,12.61
			C505.421,134.384,499.782,140.036,492.819,140.036z M590.562,140.036c-6.969,0-12.607-5.646-12.607-12.616
			c0-6.958,5.639-12.61,12.607-12.61c6.973,0,12.611,5.652,12.611,12.61C603.173,134.384,597.532,140.036,590.562,140.036z"/>
	</g>
	<g>
		<path fill="#F6C697" stroke="#B28247" stroke-width="10" stroke-dasharray="13,13,13" d="M161.944,335.433h227.953V149.665
			c0-11.027-8.949-19.979-19.971-19.979h-22.828V73.118c0-14.369-11.477-26.016-25.623-26.016s-25.609,11.646-25.609,26.016v56.568
			h-39.879V73.118c0-14.369-11.475-26.016-25.623-26.016c-14.152,0-25.623,11.646-25.623,26.016v56.568h-22.814
			c-11.035,0-19.982,8.943-19.982,19.979V335.433L161.944,335.433z"/>
		<path fill="#F6C697" stroke="#B28247" stroke-width="10" stroke-dasharray="13,13,13" d="M389.396,351.985H161.438
			c2.99,34.541,26.479,64.137,59.941,79.707l-21.057,30.57c-1.25,1.82-0.939,4.205,0.695,5.33c1.637,1.123,3.969,0.568,5.225-1.252
			l21.875-31.75c14.404,5.684,30.428,8.846,47.299,8.846c16.875,0,32.889-3.162,47.293-8.846l21.875,31.75
			c1.256,1.82,3.588,2.375,5.225,1.252c1.633-1.131,1.939-3.51,0.695-5.33l-21.059-30.57
			C362.917,416.12,386.403,386.526,389.396,351.985z M239.935,396.132c0,6.959-5.633,12.611-12.602,12.611
			c-6.971,0-12.617-5.652-12.617-12.611c0-6.969,5.65-12.615,12.617-12.615C234.296,383.517,239.935,389.167,239.935,396.132z
			 M337.687,396.132c0,6.959-5.639,12.611-12.611,12.611c-6.969,0-12.607-5.652-12.607-12.611c0-6.969,5.639-12.615,12.607-12.615
			C332.046,383.517,337.687,389.167,337.687,396.132z"/>
	</g>
</g>
</svg>
